<svg xmlns="http://www.w3.org/2000/svg" version="1.2" baseProfile="tiny" width="1024" height="1024" viewBox="0 0 1024 1024">
<path d="M 28.511583,767.58517 H 6.4142572 l -2.9581107,26.89922 c 1.0678387,-0.16521 2.2999231,-0.16521 3.7793397,-0.16521 6.1611448,0 11.5827028,2.39264 11.5827028,9.57153 0,5.77605 -3.450849,9.15874 -8.707919,9.15874 -2.8747838,0 -5.6681669,-0.9072 -7.6398393,-1.89773 l -1.64318083,8.58172 c 2.13615913,1.15502 6.24374973,2.14507 10.02236713,2.14507 11.665307,0 18.5658,-8.49936 18.5658,-18.97834 0,-5.36303 -1.643183,-9.40559 -4.600569,-12.2941 -3.039271,-2.88755 -7.721722,-3.96069 -10.022368,-4.04329 -0.574619,0 -1.14948,0 -1.642458,0 l 1.232325,-9.57177 h 14.129236 z m 22.919758,-0.66084 c -11.089965,0 -16.019507,12.29483 -16.019507,27.72527 0,13.77954 3.943827,27.22891 15.609133,27.22891 8.625556,0 15.60793,-8.49936 15.60793,-27.72382 0,-12.79046 -2.874785,-27.23036 -15.197556,-27.23036 z m -0.163764,9.24136 c 3.450126,0 4.517724,6.76658 4.517724,18.23609 0,12.29411 -1.14948,18.23537 -4.517724,18.23537 -3.614132,0 -5.17543,-5.69345 -5.011665,-18.23537 -0.08188,-12.46004 1.643902,-18.23609 5.011665,-18.23609 z m 44.524829,45.05318 v -12.54192 c 0,-11.13981 -0.410374,-19.72081 -0.656743,-25.33165 h 0.164487 c 1.231602,5.03333 3.777893,12.04629 5.58556,16.74993 l 8.46107,21.12364 h 9.85764 v -55.61476 h -9.44679 v 12.29483 c 0,10.23188 0.74008,19.88553 1.06833,25.74468 h -0.16449 c -1.5613,-4.78601 -4.27136,-11.96514 -5.91454,-16.25552 l -8.543669,-21.78399 h -9.85764 v 55.61476 z m 51.672414,-12.70713 2.3818,12.70713 h 10.43322 l -10.76171,-55.61476 h -12.89811 l -11.9938,55.61476 h 10.43322 l 2.46441,-12.70713 z m -8.87265,-8.41651 2.05283,-11.55139 c 0.57535,-3.21892 1.3973,-8.99498 1.97216,-12.70785 h 0.24637 c 0.49297,3.71287 1.23232,9.24184 1.80718,12.62525 l 1.80695,11.63399 z M 132.924,753.14479 c 0,5.85866 3.28492,9.65438 10.02165,9.65438 6.4906,0 9.85884,-3.87832 9.85884,-9.65438 h -5.83386 c -0.0821,2.22767 -1.6427,3.63123 -4.1071,3.63123 -2.54702,0 -4.02571,-1.48568 -4.18948,-3.63123 z m 68.26534,68.07408 h 9.61199 l -3.36848,-55.61476 h -11.33634 l -4.35396,20.13335 c -1.47869,7.01368 -2.7115,13.28536 -3.53273,19.47372 h -0.16448 c -0.98524,-6.27097 -2.38205,-12.46004 -3.94311,-19.47372 l -4.43536,-20.13335 h -11.33705 l -4.02499,55.61476 h 9.2823 l 0.90431,-19.3085 c 0.32849,-5.52825 0.65674,-12.54193 0.82147,-18.56507 h 0.24637 c 0.82123,6.02314 2.29993,12.95422 3.36752,17.41005 l 4.60057,19.5556 h 7.64032 l 4.76434,-19.88602 c 1.06783,-4.29062 2.54629,-11.13909 3.53224,-17.07963 h 0.24637 c -0.16448,5.94054 0.24637,13.11871 0.49346,18.39986 z m 40.00687,0 v -12.54192 c 0,-11.13981 -0.41086,-19.72081 -0.65723,-25.33165 h 0.16448 c 1.23209,5.03333 3.7779,12.04629 5.58557,16.74993 l 8.46082,21.12364 h 9.85908 v -55.61476 h -9.44798 v 12.29483 c 0,10.23188 0.74007,19.88553 1.06832,25.74468 h -0.16449 c -1.56129,-4.78601 -4.27135,-11.96514 -5.91453,-16.25552 l -8.54367,-21.78399 h -9.85765 v 55.61476 z m 63.66548,-31.19031 h -14.86906 v 8.82905 h 4.92882 v 13.44913 c -0.41013,0.16521 -1.14948,0.24781 -2.13544,0.24781 -5.01142,0 -10.1866,-4.78625 -10.1866,-18.15277 0,-14.5225 5.83265,-19.5556 13.14327,-19.5556 2.7115,0 4.76505,0.4123 6.32563,1.23762 l 1.88955,-9.32467 c -1.72507,-0.8246 -4.84694,-1.64993 -9.03641,-1.64993 -11.7467,0 -23.24826,8.41651 -23.49463,28.63247 -0.16449,9.57153 2.38252,17.82307 7.14758,22.44338 3.69651,3.7136 8.46085,5.52873 14.78647,5.52873 4.02499,0 9.11853,-0.99053 11.50082,-1.98034 z m 26.78121,18.48318 2.38183,12.70713 h 10.43249 l -10.76098,-55.61476 h -12.89766 l -11.99379,55.61476 h 10.43322 l 2.46441,-12.70713 z m -8.87264,-8.41651 2.05331,-11.55139 c 0.57486,-3.21892 1.39753,-8.99498 1.97239,-12.70785 h 0.24637 c 0.49298,3.71287 1.23209,9.24184 1.80695,12.62525 l 1.80718,11.63399 z m -7.80433,-46.78523 10.02213,9.32396 h 7.64055 l -6.7372,-9.32396 z m 50.27512,67.90887 v -21.70115 l 12.40537,-33.91361 h -11.17328 l -3.28564,13.03755 c -0.98572,3.96092 -1.88955,8.00372 -2.54701,12.04701 h -0.16377 c -0.82195,-4.12589 -1.88979,-8.25202 -2.8755,-11.7992 l -3.77862,-13.28536 h -11.50081 l 12.15755,34.32591 v 21.28885 z m 59.88687,-31.19031 h -14.86858 v 8.82905 h 4.92882 v 13.44913 c -0.41085,0.16521 -1.1502,0.24781 -2.13519,0.24781 -5.01167,0 -10.18685,-4.78625 -10.18685,-18.15277 0,-14.5225 5.83265,-19.5556 13.14327,-19.5556 2.71174,0 4.76505,0.4123 6.32563,1.23762 l 1.88979,-9.32467 c -1.72579,-0.8246 -4.84694,-1.64993 -9.03665,-1.64993 -11.74718,0 -23.248,8.41651 -23.49461,28.63247 -0.16448,9.57153 2.38253,17.82307 7.14686,22.44338 3.69746,3.7136 8.46106,5.52873 14.78718,5.52873 4.0245,0 9.1178,-0.99053 11.50033,-1.98034 z m 8.05141,-24.42445 v 55.61476 h 10.76077 v -55.61476 z m 39.10231,42.90763 2.38253,12.70713 h 10.43322 L 474.3352,765.60411 h -12.89763 l -11.99307,55.61476 h 10.4325 l 2.46513,-12.70713 z m -8.87191,-8.41651 2.05355,-11.55139 c 0.57486,-3.21892 1.39681,-8.99498 1.97215,-12.70785 h 0.24637 c 0.49298,3.71287 1.2316,9.24184 1.80719,12.62525 l 1.80694,11.63399 z m 6.40751,-37.04825 c 1.80718,-3.71383 5.33991,-5.28115 5.33991,-9.32468 0,-3.63026 -2.95739,-6.60066 -6.90049,-6.60066 -4.02571,0 -6.81909,2.47525 -8.37966,5.69346 l 3.45084,2.72257 c 0.57486,-1.15526 1.56058,-2.55737 2.87479,-2.55737 1.31468,0 2.13591,0.98981 2.13591,2.31004 0,2.39288 -2.46441,3.30081 -3.61461,6.68398 z m 21.35943,2.55713 v 55.61476 h 10.76147 v -55.61476 z m 33.43485,55.61476 h 10.76099 v -20.71134 c 0.65722,0 1.39657,0 2.13591,0 4.43611,0 10.02167,-1.64992 13.47252,-5.28043 2.87526,-3.13608 4.68244,-7.34337 4.68244,-13.36796 0,-4.70292 -1.47869,-9.32324 -4.76433,-12.2115 -3.61557,-3.38342 -8.62627,-4.29062 -15.03381,-4.29062 -4.10758,0 -8.21445,0.4123 -11.25372,1.07241 z m 10.76099,-46.70311 c 0.65722,-0.24709 1.64318,-0.4123 2.62892,-0.4123 5.01142,0 6.98285,3.79548 6.98285,8.66433 0,5.19854 -2.46513,9.0759 -7.88671,9.0759 -0.65747,0 -1.23233,0 -1.72506,-0.16521 z m 26.78027,-8.91165 v 55.61476 h 10.76147 v -23.26919 h 11.25444 v 23.26919 h 10.76173 v -55.61476 h -10.76173 v 22.27962 h -11.25444 v -22.27962 z m 57.83355,-0.66012 c -12.2404,0 -18.23754,13.12016 -18.23754,28.30277 0,15.26498 4.92882,28.63175 17.49819,28.63175 10.5151,0 17.90761,-8.49936 17.90761,-29.45707 0,-12.70737 -3.7779,-27.47745 -17.16826,-27.47745 z m -0.4111,9.40729 c 4.84694,0 6.32563,8.82881 6.32563,18.56579 0,11.30405 -1.72506,19.55488 -6.24374,19.55488 -4.35396,0 -6.73577,-6.43617 -6.73577,-19.05998 0,-11.96513 2.38181,-19.06069 6.65388,-19.06069 z m 2.05356,-21.04128 -6.736,9.32396 h 7.63911 L 632.55402,753.31 Z m 31.79169,67.90887 v -12.54192 c 0,-11.13981 -0.41013,-19.72081 -0.65674,-25.33165 h 0.164 c 1.23209,5.03333 3.77838,12.04629 5.58604,16.74993 l 8.46107,21.12364 h 9.85763 v -55.61476 h -9.44654 v 12.29483 c 0,10.23188 0.73911,19.88553 1.06832,25.74468 h -0.16448 c -1.5613,-4.78601 -4.27232,-11.96514 -5.91478,-16.25552 l -8.54342,-21.78399 h -9.85788 v 55.61476 z m 63.66548,-31.19031 H 702.2169 v 8.82905 h 4.92954 v 13.44913 c -0.41109,0.16521 -1.15044,0.24781 -2.13543,0.24781 -5.01215,0 -10.18733,-4.78625 -10.18733,-18.15277 0,-14.5225 5.83265,-19.5556 13.14399,-19.5556 2.7115,0 4.76506,0.4123 6.32563,1.23762 l 1.88955,-9.32467 c -1.72578,-0.8246 -4.84694,-1.64993 -9.03641,-1.64993 -11.74814,0 -23.24898,8.41651 -23.49535,28.63247 -0.16449,9.57153 2.38253,17.82307 7.14686,22.44338 3.69724,3.7136 8.46084,5.52873 14.78792,5.52873 4.02426,0 9.11756,-0.99053 11.50009,-1.98034 z m 55.94449,31.19031 h 9.61126 l -3.36824,-55.61476 h -11.33633 l -4.35395,20.13335 c -1.4787,7.01368 -2.7115,13.28536 -3.53297,19.47372 h -0.16377 c -0.98571,-6.27097 -2.38252,-12.46004 -3.94382,-19.47372 l -4.43512,-20.13335 h -11.33707 l -4.02499,55.61476 h 9.28208 l 0.90455,-19.3085 c 0.3285,-5.52825 0.65675,-12.54193 0.82123,-18.56507 h 0.24661 c 0.82123,6.02314 2.29992,12.95422 3.36752,17.41005 l 4.60057,19.5556 h 7.64032 l 4.76433,-19.88602 c 1.06759,-4.29062 2.54629,-11.13909 3.532,-17.07963 h 0.24661 c -0.16448,5.94054 0.24637,13.11871 0.49346,18.39986 z m 17.49675,-55.61476 v 55.61476 h 10.76173 v -55.61476 z m 43.78572,22.19702 h -12.65053 v -12.78974 h 13.30848 v -9.40728 H 810.9002 v 55.61476 h 25.05662 v -9.40704 h -14.29443 v -15.01741 h 12.65053 z m -10.10352,-39.93677 9.03568,9.48917 h 5.33992 l -5.01143,-9.48917 z m -5.3404,5.69345 -5.83289,9.07615 h 6.73721 l 2.7929,-4.53771 h 0.16376 l 2.71174,4.53771 h 7.14662 l -6.1609,-9.07615 z m 33.84573,67.66106 v -12.54192 c 0,-11.13981 -0.41085,-19.72081 -0.65722,-25.33165 h 0.16448 c 1.23209,5.03333 3.7779,12.04629 5.58629,16.74993 l 8.46034,21.12364 h 9.85835 v -55.61476 h -9.4475 v 12.29483 c 0,10.23188 0.74007,19.88553 1.06832,25.74468 h -0.16448 c -1.5613,-4.78601 -4.27136,-11.96514 -5.91454,-16.25552 l -8.54367,-21.78399 h -9.85765 v 55.61476 z m 55.4503,0 v -12.54192 c 0,-11.13981 -0.41085,-19.72081 -0.65722,-25.33165 h 0.16449 c 1.23208,5.03333 3.77861,12.04629 5.58628,16.74993 l 8.46082,21.12364 h 9.85836 v -55.61476 h -9.44798 v 12.29483 c 0,10.23188 0.74007,19.88553 1.06832,25.74468 h -0.16377 c -1.5613,-4.78601 -4.27207,-11.96514 -5.91477,-16.25552 l -8.54343,-21.78399 h -9.85836 v 55.61476 z m 51.67193,-12.70713 2.38229,12.70713 h 10.43274 l -10.76171,-55.61476 h -12.89763 l -11.99309,55.61476 h 10.43252 l 2.46513,-12.70713 z m -8.87216,-8.41651 2.05356,-11.55139 c 0.57486,-3.21892 1.39681,-8.99498 1.97215,-12.70785 h 0.24661 c 0.49274,3.71287 1.23136,9.24184 1.80694,12.62525 l 1.80695,11.63399 z m 62.5972,21.12364 h 9.6112 l -3.3682,-55.61476 h -11.3363 l -4.354,20.13335 c -1.478,7.01368 -2.711,13.28536 -3.5322,19.47372 h -0.1645 c -0.98574,-6.27097 -2.38186,-12.46004 -3.94316,-19.47372 l -4.43583,-20.13335 h -11.33706 l -4.0245,55.61476 h 9.2823 l 0.90383,-19.3085 c 0.32897,-5.52825 0.65746,-12.54193 0.82195,-18.56507 h 0.24589 c 0.82171,6.02314 2.29968,12.95422 3.36824,17.41005 l 4.59984,19.5556 h 7.6403 l 4.7651,-19.88602 c 1.0676,-4.29062 2.5456,-11.13909 3.5313,-17.07963 h 0.2466 c -0.164,5.94054 0.2464,13.11871 0.4935,18.39986 z m -820.2384,89.08261 h 10.76147 v -45.63021 h 9.85788 v -9.98455 h -30.39511 v 9.98455 h 9.77576 z m 26.28752,-55.61476 v 55.61476 h 10.76147 v -23.26943 h 11.25446 v 23.26943 h 10.76099 v -55.61476 h -10.76099 v 22.27938 h -11.25446 v -22.27938 z m 57.83331,-0.6594 c -12.24017,0 -18.23803,13.11943 -18.23803,28.30181 0,15.26522 4.92954,28.63247 17.49868,28.63247 10.51536,0 17.90787,-8.49912 17.90787,-29.45779 0,-12.70713 -3.7779,-27.47649 -17.16852,-27.47649 z m -0.41086,9.40632 c 4.84696,0 6.32565,8.82906 6.32565,18.56579 0,11.3043 -1.72506,19.55512 -6.24377,19.55512 -4.35395,0 -6.73576,-6.43569 -6.73576,-19.06021 0,-11.96513 2.38181,-19.0607 6.65388,-19.0607 z m -3.20375,-20.79322 -5.83266,9.07663 h 6.81765 l 2.71174,-4.53844 h 0.16449 l 2.71077,4.53844 h 7.14688 l -6.07928,-9.07663 z m 15.36133,-6.84871 -4.92882,9.40584 h 5.33992 l 9.0364,-9.40584 z m 21.68767,74.50977 v -12.54192 c 0,-11.13981 -0.41038,-19.72105 -0.65675,-25.33165 h 0.16377 c 1.23232,5.03309 3.71383,12.07495 5.58628,16.74969 l 8.46106,21.12388 h 9.85766 v -55.61476 h -9.4468 v 12.29555 c 0,10.22899 0.73935,19.88457 1.06856,25.74395 h -0.16473 c -1.56105,-4.78624 -4.23787,-11.97886 -5.91453,-16.25575 l -8.54367,-21.78375 h -9.85763 v 55.61476 z m 63.66548,-31.19031 h -14.86906 v 8.82881 h 4.92882 v 13.44985 c -0.4111,0.16472 -1.15044,0.24733 -2.13544,0.24733 -5.01142,0 -10.18685,-4.78553 -10.18685,-18.15301 0,-14.52226 5.8329,-19.5556 13.14352,-19.5556 2.7115,0 4.76505,0.4123 6.32563,1.23762 l 1.89027,-9.32444 c -1.72579,-0.8246 -4.84766,-1.64992 -9.03713,-1.64992 -11.74743,0 -23.21766,8.41796 -23.49461,28.63222 -0.13125,9.57105 2.41865,17.78695 7.14686,22.44411 3.73213,3.67554 8.46082,5.52825 14.78717,5.52825 4.02426,0 9.11829,-0.98981 11.50082,-1.98034 z m 30.56033,31.19031 v -12.54192 c 0,-11.13981 -0.4111,-19.72105 -0.65747,-25.33165 h 0.16449 c 1.23232,5.03309 3.71383,12.07495 5.58628,16.74969 l 8.46107,21.12388 h 9.85763 v -55.61476 h -9.4475 v 12.29555 c 0,10.22899 0.74007,19.88457 1.06856,25.74395 h -0.16401 c -1.56129,-4.78624 -4.23787,-11.97886 -5.91453,-16.25575 l -8.54367,-21.78375 h -9.85835 v 55.61476 z m 32.94141,-55.61476 v 55.61476 h 10.76147 v -23.26943 h 11.25372 v 23.26943 h 10.76171 v -55.61476 h -10.76171 v 22.27938 h -11.25372 v -22.27938 z m 61.03707,42.90763 2.38204,12.70713 h 10.4325 l -10.76099,-55.61476 h -12.89763 l -11.99453,55.61476 h 10.43396 l 2.46441,-12.70713 z m -8.8724,-8.41675 2.05331,-11.55139 c 0.57221,-3.21941 1.39753,-8.99402 1.97215,-12.70785 h 0.24661 c 0.49274,3.71383 1.28001,9.23653 1.80695,12.62525 l 1.80694,11.63399 z m 0.82122,-46.53718 -5.83219,9.07663 h 6.81791 l 2.79338,-4.53844 h 0.16449 l 2.71029,4.53844 h 7.14758 l -6.16186,-9.07663 z m 15.44392,-6.84871 -5.0107,9.40584 h 5.33968 l 9.0364,-9.40584 z m 13.39037,74.50977 h 10.7617 v -45.63021 h 9.85766 v -9.98455 h -30.39512 v 9.98455 h 9.77576 z m 34.58531,-25.00196 h 5.01094 v 24.83675 c 2.05331,0.3297 5.42155,0.66012 8.87192,0.66012 7.72148,0 13.12208,-1.8397 16.92261,-5.36376 4.74172,-4.39562 7.63962,-12.29411 7.63962,-23.59913 0,-10.80915 -2.41721,-18.11592 -7.14688,-22.44338 -3.56548,-3.26228 -8.37967,-4.9505 -15.36204,-4.9505 -4.27135,0 -8.29706,0.4123 -10.92523,1.07242 v 22.2789 h -5.01094 z m 21.76882,-7.50858 h -6.07902 v -14.4399 c 0.65747,-0.16521 1.31469,-0.24781 2.13616,-0.24781 6.572,0 9.52915,6.93107 9.52915,18.31797 0,15.43043 -4.51845,20.54613 -9.69388,20.54613 -0.57461,0 -1.39584,0 -1.97143,-0.16496 v -16.50285 h 6.07902 z m 40.91167,19.80341 2.3818,12.70713 h 10.43322 l -10.76147,-55.61476 h -12.89762 l -11.99452,55.61476 h 10.43394 l 2.46441,-12.70713 z m -8.87264,-8.41675 2.05355,-11.55139 c 0.57269,-3.21941 1.39729,-8.99402 1.97215,-12.70785 h 0.24637 c 0.49298,3.71383 1.28073,9.23653 1.80719,12.62525 l 1.80694,11.63399 z m 0.82195,-46.53718 -5.83265,9.07663 h 6.81764 l 2.79362,-4.53844 h 0.16449 l 2.71005,4.53844 h 7.14758 l -6.16162,-9.07663 z m 15.44319,-6.84871 -5.0107,9.40584 h 5.33992 l 9.0364,-9.40584 z m 13.39061,74.50977 h 10.76149 v -45.63021 h 9.85787 v -9.98455 H 628.1401 v 9.98455 h 9.77503 z m 48.7969,0 v -12.54192 c 0,-11.13981 -0.41085,-19.72105 -0.65722,-25.33165 h 0.16449 c 1.23208,5.03309 3.71359,12.07495 5.5863,16.74969 l 8.4601,21.12388 h 9.85908 v -55.61476 h -9.44798 v 12.29555 c 0,10.22899 0.74007,19.88457 1.06832,25.74395 h -0.16377 c -1.56202,-4.78624 -4.23884,-11.97886 -5.91477,-16.25575 l -8.54417,-21.78375 h -9.85764 v 55.61476 z m 63.00829,-63.10914 c 0.90383,1.48471 1.47845,3.4653 1.47845,5.19855 0,1.97962 -0.90504,2.31003 -2.71006,2.31003 h -7.80507 v 36.14105 c 0,8.40038 -2.21731,10.62998 -5.33895,10.62998 -2.79362,0 -5.25803,-2.47477 -5.25803,-10.62998 v -36.14105 h -10.76147 v 34.32592 c 0,13.9291 4.51845,21.93476 16.10139,21.93476 10.67888,0 16.0188,-7.7564 16.0188,-22.01736 v -27.95863 l 0.98571,-0.0826 c 4.22632,-0.35354 6.49012,-3.31358 6.49012,-7.60492 0,-2.64045 -0.65819,-5.03334 -1.64318,-7.09628 z m 28.58718,54.36221 c -4.84693,0 -6.77814,-8.25154 -6.73576,-19.3073 0.0383,-10.06595 1.88883,-18.81361 6.65388,-18.81361 4.84694,0 6.32491,8.82906 6.32491,18.56579 0,11.3043 -1.72434,19.55512 -6.24303,19.55512 z m 11.41894,-51.07585 c 0.82123,1.65065 1.72458,3.63051 1.72458,5.61085 0,1.23834 -0.41038,1.98034 -1.47797,1.98034 -0.98596,0 -2.12051,-1.2711 -4.84694,-2.64046 -2.03645,-1.02208 -4.51868,-1.40211 -6.48939,-1.40211 -12.2404,0 -18.23754,13.11943 -18.23754,28.30181 0,15.26522 4.92882,28.63247 17.49819,28.63247 10.51438,0 17.90763,-8.49912 17.90763,-29.45779 0,-7.83828 -1.31421,-13.20204 -3.03929,-17.08036 4.10761,-0.74271 6.24377,-3.71287 6.24377,-8.08609 0,-2.88779 -0.82195,-5.19782 -1.72506,-7.01368 z m -10.5151,-8.08609 -6.81837,9.32444 h 7.6396 l 10.02236,-9.32444 z m 48.87903,58.00668 c -1.31421,0.41303 -3.36824,0.82533 -5.17519,0.82533 -6.57224,0 -11.58366,-5.19831 -11.58366,-18.48247 0,-13.78026 5.5044,-19.06141 11.58366,-19.06141 2.38229,0 3.7791,0.49562 5.01142,1.07313 l 1.80695,-9.07662 c -1.0676,-0.74272 -3.69722,-1.48544 -7.47511,-1.48544 -10.76243,0 -22.34585,8.16942 -22.34585,29.12785 0,15.76013 6.73648,27.47673 20.86643,27.47673 3.7791,0 6.81909,-0.57751 8.37967,-1.32023 z"/>
<path d="M 23.921128,335.08878 C 49.595016,255.20659 87.624185,134.61143 108.49954,69.309057 118.84125,36.958184 131.94431,25.997309 153.1903,18.226462 c 19.18979,-7.019218 52.28195,-5.622407 94.48109,-5.76859 67.34175,-0.23216 97.1018,-0.117525 143.54436,-0.117525 68.54854,0 78.00351,-10.3811987 80.65215,-12.340347 -0.42386,1.4355849 -3.51563,11.23807 -7.81709,26.460665 -4.41416,15.618759 -10.20033,35.704906 -16.07874,53.256804 -18.37965,54.872771 -38.17271,59.339441 -91.33128,58.833691 -33.64391,-0.3203 -88.50635,0.35571 -135.94016,0.35571 -20.95651,0 -33.15092,-0.72971 -38.9843,19.69215 l -17.63547,55.64896 c 21.76811,-6.49493 44.83213,-9.98407 68.71255,-9.98407 50.39025,0 97.14682,15.53808 135.75495,42.07606 C 411.67735,110.79267 538.54763,12.586956 688.38604,12.586956 873.74035,12.586956 1024,162.84581 1024,348.20003 c 0,2.9451 -0.039,5.88129 -0.1161,8.80858 -31.5795,-36.33227 -67.48502,-77.93268 -80.18591,-87.36839 -26.43706,-21.64407 -57.76058,-8.1947 -84.24172,11.52201 5.43866,-34.46102 12.36515,-76.46217 22.90674,-110.02611 5.78979,-14.66844 28.22766,-24.66672 34.14966,-28.82753 -6.68736,0.25672 -26.09752,-0.0357 -34.88202,-1.94831 -10.27355,-7.40551 -25.55033,-23.73303 -56.39652,-16.10018 -34.63709,7.54832 -96.36534,83.9238 -101.80062,88.99735 -4.16852,-10.87369 -22.40173,-76.26951 -62.25663,-90.73181 -43.76983,-16.0838 -93.44601,16.59822 -191.07282,91.32353 -50.42997,38.60016 -98.7245,77.22874 -148.30724,116.94225 -24.51066,-19.25601 -55.41634,-30.73972 -89.00341,-30.73972 -36.01559,0 -68.94519,13.20685 -94.21617,35.03708 -38.21846,0 -76.436927,0 -114.656112,0 z M 966.00678,536.81941 c -60.39358,88.72353 -162.1995,146.99441 -277.62074,146.99441 -100.11096,0 -189.96907,-43.8435 -251.45817,-113.36497 C 394.62373,638.73462 319.02584,684.22564 232.79341,684.22564 120.42446,684.22564 26.103767,606.98943 0,502.71145 h 100.96567 c 22.4275,50.50075 73.00775,85.7264 131.82774,85.7264 44.39237,0 84.09218,-20.0676 110.54347,-51.61844 h 67.427 43.49336 z M 293.03335,36.177173 l -8.85844,26.789156 -28.1477,-0.05539 22.67555,16.503567 -8.96079,26.757124 22.87209,-16.592191 22.61197,16.592191 -8.54006,-26.757124 22.93348,-16.503567 -28.1484,0.05539 z"/>
<path d="m 293.03335,36.177173 -8.85844,26.789156 -28.1477,-0.05539 22.67555,16.503567 -8.96079,26.757124 22.87209,-16.592191 22.61197,16.592191 -8.54006,-26.757124 22.93348,-16.503567 -28.1484,0.05539 z"/>
<path d="m 836.33155,144.55384 c 5.22576,-1.00354 10.27622,2.4201 11.27904,7.64586 1.00354,5.22648 -2.41937,10.27619 -7.64588,11.27973 -5.22576,1.00354 -10.2762,-2.4201 -11.27973,-7.64586 -1.00354,-5.22648 2.42009,-10.27619 7.64657,-11.27973"/>
<path d="m 146.12195,502.98093 v -18.15469 h -5.24069 V 480.808 h 0.2914 c 1.88883,0 3.39353,-0.35426 4.52398,-1.07242 1.12516,-0.71695 1.87679,-1.79538 2.25634,-3.22976 h 4.04618 v 26.47511 z m -5.54727,-38.23747 h 179.12355 v 2.85215 H 140.57468 Z m 1.45052,-33.86015 h 15.40852 c 0.13173,4.70485 0.65674,8.0649 1.55793,10.06523 0.91756,1.99937 2.37626,2.99881 4.36094,2.99881 1.98299,0 3.47469,-0.90094 4.49051,-2.72113 1.00065,-1.80285 1.50807,-4.47486 1.50807,-7.9994 0,-3.73695 -0.90118,-6.42581 -2.72113,-8.0649 -1.80309,-1.62222 -4.78625,-2.44201 -8.94971,-2.44201 -0.67264,0 -1.18055,0 -1.5088,0.0144 -0.34342,0.0169 -0.6553,0.0498 -0.93394,0.0819 l -0.0491,-11.62171 h 1.57359 c 4.0652,0 6.99995,-0.8034 8.77029,-2.37771 1.77082,-1.58995 2.65539,-4.21259 2.65539,-7.852 0,-2.40974 -0.41014,-4.26172 -1.24581,-5.574 -0.81979,-1.3106 -2.03285,-1.96662 -3.58933,-1.96662 -1.93555,0 -3.29527,0.75356 -4.1153,2.27945 -0.81978,1.52421 -1.29494,4.32675 -1.4103,8.42543 h -15.12988 v -0.96814 c 0,-6.96575 1.91749,-12.4244 5.73705,-16.34221 3.82028,-3.91854 9.09854,-5.88539 15.81937,-5.88539 6.08119,0 11.0483,1.75372 14.88424,5.2614 3.85303,3.50889 5.77124,8.01649 5.77124,13.50861 0,3.65483 -0.86891,6.83474 -2.62335,9.55588 -1.73759,2.72113 -4.37733,5.04971 -7.90187,6.96792 4.19694,1.63981 7.29497,3.91733 9.29506,6.8186 1.99961,2.91838 2.99978,6.6233 2.99978,11.09743 0,7.14758 -1.99889,12.70496 -5.99859,16.72128 -4.00114,3.99969 -9.57394,5.99978 -16.70491,5.99978 -6.98381,0 -12.41019,-2.08197 -16.26178,-6.24567 -3.85231,-4.16346 -5.78641,-10.0161 -5.78641,-17.57309 0,-0.22951 0.0156,-0.58979 0.0491,-1.08133 0.0327,-0.50863 0.0491,-0.86915 0.0491,-1.08204 z m 69.06272,-12.01643 v 5.42661 c 0,8.4589 0.40965,13.80218 1.22943,16.03178 0.80365,2.21323 2.34376,3.32803 4.57408,3.32803 2.2125,0 3.73623,-1.1148 4.57311,-3.32803 0.83616,-2.2296 1.24509,-7.57288 1.24509,-16.03178 v -5.42661 -6.57272 c 0,-7.90186 -0.40893,-12.93447 -1.24509,-15.08147 -0.83688,-2.14748 -2.36061,-3.21315 -4.57311,-3.21315 -2.23032,0 -3.77043,1.1148 -4.57408,3.3273 -0.81978,2.23033 -1.22943,7.62322 -1.22943,16.16352 z m -16.62279,0 c 0,-9.21245 0.27912,-15.8343 0.81979,-19.85182 0.54138,-4.01607 1.49169,-7.06425 2.83649,-9.14647 1.85198,-2.88489 4.39297,-5.09884 7.63839,-6.62329 3.22953,-1.53986 6.95083,-2.31076 11.13163,-2.31076 4.22897,0 7.96665,0.7709 11.19569,2.32738 3.22953,1.55768 5.77052,3.78728 7.58975,6.70445 1.31155,2.11473 2.24597,5.06585 2.80301,8.85193 0.55777,3.8039 0.8535,9.40993 0.8535,16.83591 0,8.06442 -0.14811,14.11358 -0.41037,18.1311 -0.27912,4.01535 -0.73862,7.31062 -1.37755,9.86799 -0.95031,3.93419 -3.3273,7.13024 -7.1312,9.55587 -3.78609,2.44322 -8.2937,3.65628 -13.52283,3.65628 -4.27906,0 -8.06587,-0.80341 -11.34476,-2.40974 -3.29383,-1.58996 -5.85168,-3.91782 -7.72076,-6.9501 -1.21258,-1.96686 -2.08149,-5.00059 -2.5894,-9.13081 -0.50791,-4.13071 -0.77138,-10.63937 -0.77138,-19.50792 z m 53.50658,36.50711 v -16.90094 h 17.04832 v 16.90094 z M 299.0182,428.4242 v -29.62155 l -13.44166,29.62155 z m -1.86859,26.94979 v -14.26168 h -24.39149 v -13.98305 l 23.32606,-44.85113 h 16.91779 v 46.14607 h 6.37596 v 12.68811 h -6.37596 v 14.26168 z m -72.67445,40.36592 v -5.27706 h 10.67477 v 5.27706 z m -56.09357,-2.68212 c -0.65192,0.40821 -1.29975,0.71069 -1.9406,0.9154 -0.64181,0.19796 -1.30048,0.29766 -1.97095,0.29766 -1.93531,0 -3.37523,-0.67721 -4.32073,-2.03501 -0.94959,-1.35298 -1.42185,-3.41617 -1.42185,-6.18017 0,-3.21266 0.64157,-5.60819 1.92374,-7.18226 1.28266,-1.57984 3.23025,-2.36759 5.84759,-2.36759 1.26508,0 2.38469,0.18086 3.35885,0.54813 0.97271,0.36124 1.81248,0.91563 2.51836,1.65546 0.76391,0.82195 1.30048,1.95313 1.61524,3.39979 0.31452,1.44522 0.47154,3.98139 0.47154,7.61985 0,3.17172 -0.0872,5.44491 -0.24974,6.80343 -0.16376,1.35852 -0.44384,2.46032 -0.82797,3.30563 -0.54837,1.1844 -1.42282,2.09353 -2.62986,2.72306 -1.20752,0.63482 -2.67658,0.95103 -4.4079,0.95103 -2.30884,0 -4.10494,-0.59533 -5.36978,-1.779 -1.2711,-1.1832 -1.90593,-2.86804 -1.90593,-5.05453 l 5.60242,0.0168 c 0.0234,0.81642 0.18111,1.43414 0.47805,1.85415 0.29815,0.4135 0.72899,0.62399 1.30048,0.62399 0.71671,0 1.2239,-0.3203 1.51602,-0.95031 0.29719,-0.62953 0.44867,-1.73807 0.44867,-3.32321 0,-0.47853 -0.006,-0.85133 -0.0116,-1.12034 -0.006,-0.26756 -0.0118,-0.50646 -0.0241,-0.72225 z m 0.13391,-7.70197 c 0,-1.58562 -0.1563,-2.70451 -0.46553,-3.35788 -0.31476,-0.65265 -0.84531,-0.98572 -1.59742,-0.98572 -0.66493,0 -1.13118,0.32681 -1.405,0.96862 -0.26756,0.64036 -0.40821,1.80164 -0.40821,3.47469 0,1.6085 0.14619,2.73413 0.44313,3.3928 0.29694,0.65337 0.80413,0.97898 1.52156,0.97898 0.71671,0 1.21234,-0.30225 1.49242,-0.90312 0.27985,-0.60616 0.41905,-1.79538 0.41905,-3.56837 z m 12.25052,17.62511 c 0.3085,-3.07202 1.01991,-6.35477 2.14483,-9.84728 1.12034,-3.49202 2.63588,-7.1483 4.54734,-10.97267 h -9.76564 v -5.17663 h 15.38661 v 4.47702 c -1.61525,2.88008 -2.95595,6.14525 -4.02234,9.80032 -1.06206,3.65627 -1.80767,7.5618 -2.22816,11.71924 z m 15.74689,-8.08055 h 5.45118 c 0.0465,1.49218 0.22734,2.53593 0.54813,3.12524 0.31476,0.59389 0.85133,0.89228 1.60368,0.89228 0.78631,0 1.34624,-0.32175 1.69086,-0.95104 0.34343,-0.62953 0.51273,-1.69712 0.51273,-3.20038 0,-2.16337 -0.17532,-3.60305 -0.51802,-4.32121 -0.35089,-0.71622 -0.97416,-1.07795 -1.87197,-1.07795 -0.53657,0 -0.98572,0.15148 -1.34142,0.45999 -0.36173,0.30922 -0.63555,0.77571 -0.82798,1.40018 h -4.88595 l 0.47853,-14.27854 h 13.57822 v 4.7335 h -9.08892 l -0.1864,4.78071 c 0.70515,-0.46625 1.42259,-0.81569 2.14483,-1.0493 0.72297,-0.23336 1.47532,-0.34872 2.26236,-0.34872 2.00587,0 3.49323,0.74007 4.45992,2.22069 0.96814,1.48062 1.45196,3.72588 1.45196,6.74612 0,3.17702 -0.65265,5.56172 -1.95842,7.1536 -1.30048,1.5967 -3.24759,2.39553 -5.83073,2.39553 -2.48344,0 -4.38406,-0.70515 -5.69538,-2.11087 -1.31902,-1.40476 -1.97721,-3.43303 -1.97721,-6.0742 z m 50.71198,8.08055 v -0.42578 c 0,-1.00306 0.11054,-1.99407 0.33259,-2.96775 0.22108,-0.97343 0.56523,-1.9524 1.03147,-2.94438 0.94478,-2.05813 2.43166,-4.11577 4.45992,-6.16716 0.29743,-0.29213 0.51321,-0.50791 0.64711,-0.64855 l 0.15775,-0.16786 c 2.22117,-2.3387 3.3285,-4.37852 3.3285,-6.13441 0,-0.81039 -0.15774,-1.42884 -0.4778,-1.85969 -0.32079,-0.43759 -0.77475,-0.65313 -1.36406,-0.65313 -0.8458,0 -1.4575,0.35619 -1.83705,1.06086 -0.38436,0.70635 -0.57053,1.83078 -0.57053,3.38245 v 0.46022 h -5.46899 v -0.69985 c 0,-2.82204 0.69359,-4.98397 2.07595,-6.48867 1.38115,-1.5047 3.37595,-2.25609 5.96944,-2.25609 2.34351,0 4.18056,0.64711 5.49814,1.94759 1.3236,1.29976 1.98251,3.09586 1.98251,5.39843 0,1.3525 -0.28539,2.6407 -0.85134,3.86532 -0.57221,1.22462 -1.46304,2.46585 -2.68236,3.71985 -0.26202,0.26756 -0.65794,0.66421 -1.18367,1.17838 -2.16265,2.10389 -3.51491,3.84749 -4.06328,5.22359 h 8.71032 v 5.17663 z m 24.83675,-12.98432 v 1.93001 c 0,3.00844 0.14619,4.90907 0.43639,5.70308 0.28659,0.78559 0.83471,1.18223 1.62728,1.18223 0.78655,0 1.32914,-0.39664 1.62681,-1.18223 0.29694,-0.79401 0.4424,-2.69464 0.4424,-5.70308 v -1.93001 -2.33797 c 0,-2.80928 -0.14546,-4.59985 -0.4424,-5.36376 -0.29767,-0.76319 -0.84026,-1.14201 -1.62681,-1.14201 -0.79257,0 -1.34069,0.39592 -1.62728,1.18367 -0.2902,0.79185 -0.43639,2.71078 -0.43639,5.74812 z m -5.9126,0 c 0,-3.27601 0.0997,-5.63132 0.29164,-7.06016 0.19315,-1.42812 0.53103,-2.51354 1.00836,-3.25337 0.65939,-1.02617 1.56322,-1.8132 2.71752,-2.35531 1.14899,-0.54813 2.47211,-0.82195 3.95875,-0.82195 1.50398,0 2.83384,0.27382 3.98212,0.82821 1.149,0.55343 2.05211,1.346 2.69922,2.38446 0.46624,0.75235 0.79885,1.80164 0.9973,3.14836 0.19868,1.35322 0.30248,3.34584 0.30248,5.98774 0,2.8678 -0.0518,5.01962 -0.14474,6.44846 -0.0997,1.42812 -0.26347,2.59951 -0.49083,3.50888 -0.33717,1.39946 -1.18224,2.53618 -2.53546,3.39979 -1.34672,0.86819 -2.94968,1.30048 -4.81009,1.30048 -1.52156,0 -2.86852,-0.28682 -4.03389,-0.85759 -1.1726,-0.56595 -2.08197,-1.3932 -2.74618,-2.4726 -0.43229,-0.69888 -0.74152,-1.77828 -0.92166,-3.24734 -0.18158,-1.46906 -0.27454,-3.78416 -0.27454,-6.93806 z m 18.58773,12.98432 v -0.42578 c 0,-1.00306 0.10982,-1.99407 0.33186,-2.96775 0.22108,-0.97343 0.56595,-1.9524 1.0322,-2.94438 0.94405,-2.05813 2.43093,-4.11577 4.4604,-6.16716 0.29694,-0.29213 0.51273,-0.50791 0.64735,-0.64855 l 0.1575,-0.16786 c 2.22021,-2.3387 3.32803,-4.37852 3.32803,-6.13441 0,-0.81039 -0.15702,-1.42884 -0.47781,-1.85969 -0.32078,-0.43759 -0.77547,-0.65313 -1.36406,-0.65313 -0.84579,0 -1.4575,0.35619 -1.83705,1.06086 -0.38436,0.70635 -0.57124,1.83078 -0.57124,3.38245 v 0.46022 h -5.46828 v -0.69985 c 0,-2.82204 0.69287,-4.98397 2.07547,-6.48867 1.38236,-1.5047 3.37571,-2.25609 5.96992,-2.25609 2.34424,0 4.17984,0.64711 5.49887,1.94759 1.32215,1.29976 1.98178,3.09586 1.98178,5.39843 0,1.3525 -0.2861,2.6407 -0.85133,3.86532 -0.57221,1.22462 -1.46376,2.46585 -2.68236,3.71985 -0.26202,0.26756 -0.65867,0.66421 -1.18368,1.17838 -2.16265,2.10389 -3.5149,3.84749 -4.06376,5.22359 h 8.71081 v 5.17663 z m 19.16305,-8.08055 h 5.45117 c 0.0479,1.49218 0.22807,2.53593 0.54885,3.12524 0.31549,0.59389 0.85134,0.89228 1.60369,0.89228 0.78631,0 1.34623,-0.32175 1.69014,-0.95104 0.34414,-0.62953 0.51273,-1.69712 0.51273,-3.20038 0,-2.16337 -0.17485,-3.60305 -0.51803,-4.32121 -0.35041,-0.71622 -0.97415,-1.07795 -1.87197,-1.07795 -0.53657,0 -0.98571,0.15148 -1.34069,0.45999 -0.36125,0.30922 -0.63628,0.77571 -0.8275,1.40018 h -4.88643 l 0.47781,-14.27854 h 13.57821 v 4.7335 h -9.08818 l -0.18713,4.78071 c 0.70587,-0.46625 1.42258,-0.81569 2.14555,-1.0493 0.72297,-0.23336 1.4746,-0.34872 2.26235,-0.34872 2.00563,0 3.49251,0.74007 4.45993,2.22069 0.96789,1.48062 1.45123,3.72588 1.45123,6.74612 0,3.17702 -0.65264,5.56172 -1.95842,7.1536 -1.29976,1.5967 -3.24759,2.39553 -5.83,2.39553 -2.48368,0 -4.38406,-0.70515 -5.6961,-2.11087 -1.31758,-1.40476 -1.97721,-3.43303 -1.97721,-6.0742 z"/>
<path d="m 392.59064,448.82294 h 7.81998 v 12.44294 h -7.81998 z M 672.05105,281.79513 h 2.47742 v 28.51904 h 68.90981 v 8.92032 l -11.05579,15.96339 h 147.01904 v -4.69449 h 53.15665 v 7.98157 h -6.55153 v 4.69473 h 48.14161 v 7.98254 h -6.57681 v 12.91328 58.22054 10.51221 4.27689 0.002 3.80246 33.99116 0.70395 23.03799 h 18.96316 V 510.8339 H 967.57145 833.05194 l -61.37375,-35.71839 h -0.40965 v -34.22549 h -47.69319 v 33.99116 h 35.17655 l 8.56414,4.97939 H 579.20977 l 8.56486,-4.97939 h 36.06521 V 440.89002 H 575.3105 v 34.22549 h -0.46288 l -61.37374,35.71839 h -133.5338 -19.05877 v -12.21078 h 19.05877 v -23.03799 -0.70395 -33.99116 -3.80246 -0.002 -4.27689 -9.33937 -1.17284 -6.80969 -44.60404 -6.80681 -1.17501 -11.73827 h -6.57537 v -7.98254 h 47.47187 v -4.69473 h -5.97932 v -7.98157 h 49.67955 v 4.69449 H 614.19582 L 603.14006,319.2349 v -8.92032 h 68.91099 z m 2.47742,37.43936 v 18.27776 h 4.67233 v 2.85431 h 6.52696 v -21.13207 z m -2.47742,18.27776 v -18.27776 h -10.36337 v 21.13207 h 6.34465 v -2.85431 z m -23.94158,33.37007 v 10.53629 h 6.67435 v -10.53629 z m 0,15.79769 v 26.5358 h 6.67435 v -26.5358 z m -2.6277,26.5358 v -26.5358 h -6.172 v 26.5358 z m 0,-31.7972 v -10.53629 h -6.172 v 10.53629 z m 25.42318,-10.53629 v 10.53629 h 5.54534 v -10.53629 z m -2.62746,10.53629 v -10.53629 h -6.58981 v 10.53629 z m 10.79976,-10.53629 v 10.53629 h 6.65051 v -10.53629 z m -42.39445,44.60404 v -12.43741 h -5.93837 v 12.43741 z m 0,-15.72449 v -13.14688 h -5.93837 v 13.14688 z m 0,-16.43324 v -12.44631 h -5.93837 v 12.44631 z M 502.52456,370.88232 v 12.44631 h 5.54607 v -12.44631 z m 0,15.73267 v 13.14688 h 5.54607 v -13.14688 z m 0,16.43396 v 12.43741 h 5.54607 v -12.43741 z m -2.62697,12.43741 v -12.43741 h -6.07227 v 12.43741 z m 0,-15.72449 v -13.14688 h -6.07227 v 13.14688 z m 0,-16.43324 v -12.44631 h -6.07227 v 12.44631 z m 10.79976,-12.44631 v 12.44631 h 5.8996 v -12.44631 z m 0,15.73267 v 13.14688 h 5.8996 v -13.14688 z m 0,16.43396 v 12.43741 h 5.8996 v -12.43741 z m -34.94487,-32.16663 v 12.44631 h 5.5451 v -12.44631 z m 0,15.73267 v 13.14688 h 5.5451 v -13.14688 z m 0,16.43396 v 12.43741 h 5.5451 v -12.43741 z m -2.62697,12.43741 v -12.43741 h -6.17679 v 12.43741 z m 0,-15.72449 v -13.14688 h -6.17679 v 13.14688 z m 0,-16.43324 v -12.44631 h -6.17679 v 12.44631 z m 188.56217,29.88718 h 24.04008 v -26.5358 h -24.04008 z m 30.94397,0 h 6.58283 v -26.5358 h -6.58283 z m 9.21052,0 h 6.17198 v -26.5358 h -6.17198 z m -9.21052,-31.7972 h 6.58283 v -10.53629 h -6.58283 z m 9.21052,0 h 6.17198 v -10.53629 h -6.17198 z M 907.53912,351.16223 V 362.9005 H 884.6692 v -11.73827 z m 0,72.30666 v 9.33937 H 884.6692 v -9.33937 z m 4.10566,9.33937 v -9.33937 h 22.77164 v 9.33937 z m 0,-69.90776 v -11.73827 h 22.77164 v 11.73827 z m 26.87706,69.90776 v -9.33937 h 22.77118 v 9.33937 z m 0,-69.90776 v -11.73827 h 22.77118 v 11.73827 z m -37.98219,32.8677 h -8.27999 v 14.79006 h 8.27999 z m 0,-19.48528 h -8.27999 v 10.79904 h 8.27999 z m 27.82978,19.48528 h -8.2802 v 14.79006 h 8.2802 z m 0,-19.48528 h -8.2802 v 10.79904 h 8.2802 z m 27.82956,19.48528 h -8.2802 v 14.79006 h 8.2802 z m 0,-19.48528 h -8.2802 v 10.79904 h 8.2802 z m -1.27736,72.54002 h -7.81927 v 12.44294 h 7.81927 z m -26.90935,0 h -7.8207 v 12.44294 h 7.8207 z m -26.91005,0 h -7.82 v 12.44294 h 7.82 z m -20.46982,26.05945 v -33.99117 h -48.64398 v 33.99117 z M 439.97388,351.16223 v 11.73827 h 22.86869 v -11.73827 z m 0,72.30666 v 9.33937 h 22.86869 v -9.33937 z m -4.10638,9.33937 v -9.33937 h -22.77094 v 9.33937 z m 0,-69.90776 v -11.73827 h -22.77094 v 11.73827 z m -26.87661,69.90776 v -9.33937 h -22.77091 v 9.33937 z m 0,-69.90776 v -11.73827 h -22.77091 v 11.73827 z m 74.93366,7.98182 v 12.44631 h 5.79583 v -12.44631 z m 0,15.73267 v 13.14688 h 5.79583 v -13.14688 z m 0,16.43396 v 12.43741 h 5.79583 v -12.43741 z m -16.97583,-51.88672 v 11.73827 h 22.77166 v -11.73827 z m 0,72.30666 v 9.33937 h 22.77166 v -9.33937 z m 26.8766,-72.30666 v 11.73827 h 22.77163 v -11.73827 z m 0,72.30666 v 9.33937 h 22.77163 v -9.33937 z M 446.97311,395.7682 h 8.27948 v 14.79006 h -8.27948 z m 0,-19.48528 h 8.27948 v 10.79904 h -8.27948 z m -27.83029,19.48528 h 8.27948 v 14.79006 h -8.27948 z m 0,-19.48528 h 8.27948 v 10.79904 h -8.27948 z m -27.82954,19.48528 h 8.2802 v 14.79006 h -8.2802 z m 0,-19.48528 h 8.2802 v 10.79904 h -8.2802 z m 325.21564,-38.9667 0.14281,0.0145 v 3.03589 h -24.04008 v -21.13207 h 23.89727 z m 108.09952,137.56617 v -33.99117 h -45.99943 v 33.99117 z M 630.74443,340.36656 h 24.03939 v -21.13207 h -24.03939 z m -62.79368,134.51583 v -33.99117 h -45.99967 v 33.99117 z m -53.35942,0 v -33.99117 h -47.71149 v 33.99117 z m -95.09136,-26.05945 h 7.81998 v 12.44294 h -7.81998 z m 26.91008,0 h 7.81998 v 12.44294 h -7.81998 z m 434.15349,-97.66071 h -22.77092 v 11.73827 h 22.77092 z m -26.87586,0 h -22.77166 v 11.73827 h 22.77166 z m -26.87732,0 h -22.77164 v 11.73827 h 22.77164 z m -26.8773,0 h -22.77094 v 11.73827 h 22.77094 z m -26.8766,0 h -22.77164 v 11.73827 h 22.77164 z m -26.8773,0 h -22.60381 v 11.73827 h 22.60381 z m -29.50743,0 h -24.04008 v 11.73827 h 24.04008 z m -30.94397,0 h -24.04008 v 11.73827 h 24.04008 z m -30.94394,0 h -24.03939 v 11.73827 h 24.03939 z m -30.94398,0 h -22.506 v 11.73827 h 22.506 z m -26.61166,0 h -22.77166 v 11.73827 h 22.77166 z m -26.87732,0 h -22.77164 v 11.73827 h 22.77164 z m -26.8773,0 h -22.77094 v 11.73827 h 22.77094 z m -22.77094,81.64603 h 22.77094 v -9.33937 h -22.77094 z m 26.8766,0 h 22.77164 v -9.33937 h -22.77164 z m 26.8773,0 h 22.77166 v -9.33937 h -22.77166 z m 26.87732,0 h 22.506 v -9.33937 h -22.506 z m 29.41059,0 h 24.03939 v -9.33937 h -24.03939 z m 30.94325,0 h 24.04008 v -9.33937 h -24.04008 z m 30.94397,0 h 24.04008 v -9.33937 h -24.04008 z m 30.9437,0 h 22.60381 v -9.33937 h -22.60381 z m 26.70947,0 h 22.77164 v -9.33937 h -22.77164 z m 26.8773,0 h 22.77094 v -9.33937 h -22.77094 z m 26.8766,0 h 22.77164 v -9.33937 h -22.77164 z m 26.8773,0 h 22.77166 v -9.33937 h -22.77166 z m 26.8766,0 h 22.77092 v -9.33937 h -22.77092 z m -141.12089,8.08296 h -24.04008 v 33.99117 h 24.04008 z m -30.94397,0 h -24.04008 v 33.99117 h 24.04008 z m -30.94394,0 h -24.03939 v 33.99117 h 24.03939 z M 820.5878,510.83511 H 525.93801 l 9.85282,-5.72837 H 810.73571 Z M 574.20654,482.77076 h 198.11274 l 7.80215,4.53626 H 566.40438 Z m -12.80467,7.445 h 223.7228 l 7.80143,4.53651 H 553.59899 Z m -12.80611,7.44597 h 249.33432 l 7.80215,4.53627 H 540.79336 Z m -27.89314,-97.89986 h 6.07227 v -13.14688 h -6.07227 z m 8.69924,0 h 5.54534 v -13.14688 h -5.54534 z m 8.17279,0 h 5.89891 v -13.14688 h -5.89891 z m 10.00457,0 h 6.07155 v -13.14688 h -6.07155 z m 8.69997,0 h 5.5451 v -13.14688 h -5.5451 z m 8.17206,0 h 5.89961 v -13.14688 h -5.89961 z m 10.00527,0 h 6.07155 v -13.14688 h -6.07155 z m 8.69924,0 h 5.5451 v -13.14688 h -5.5451 z m 8.17282,0 h 5.8996 v -13.14688 h -5.8996 z m 10.00526,0 h 6.07155 v -13.14688 h -6.07155 z m 8.69852,0 h 5.5451 v -13.14688 h -5.5451 z m 8.17352,0 h 5.63396 v -13.14688 h -5.63396 z m 5.63396,3.28708 h -5.63396 v 12.43741 h 5.63396 z m -8.26238,0 h -5.5451 v 12.43741 h 5.5451 z m -8.17207,0 h -6.07155 v 12.43741 h 6.07155 z m -10.17721,0 h -5.8996 v 12.43741 h 5.8996 z m -8.52732,0 h -5.5451 v 12.43741 h 5.5451 z m -8.17279,0 h -6.07155 v 12.43741 h 6.07155 z m -10.17721,0 h -5.89961 v 12.43741 h 5.89961 z m -8.52657,0 h -5.5451 v 12.43741 h 5.5451 z m -8.17352,0 h -6.07155 v 12.43741 h 6.07155 z m -10.17721,0 h -5.89891 v 12.43741 h 5.89891 z m -8.52636,0 h -5.54534 v 12.43741 h 5.54534 z m -8.17231,0 h -6.07227 v 12.43741 h 6.07227 z m 183.86671,-3.28708 h 6.03013 v -13.14688 h -6.03013 z m 12.93375,0 h 5.73175 v -13.14688 h -5.73175 z m 8.35944,0 h 5.5451 v -13.14688 h -5.5451 z m 8.17279,0 h 6.07158 v -13.14688 h -6.07158 z m 10.17724,0 h 5.8996 v -13.14688 h -5.8996 z m 8.52705,0 h 5.54462 v -13.14688 h -5.54462 z m 8.17303,0 h 6.07156 v -13.14688 h -6.07156 z m 10.17722,0 h 5.89888 v -13.14688 h -5.89888 z m 8.52633,0 h 5.54534 v -13.14688 h -5.54534 z m 8.17305,0 h 6.07156 v -13.14688 h -6.07156 z m 10.17722,0 h 5.8996 v -13.14688 h -5.8996 z m 8.52633,0 h 5.54606 v -13.14688 h -5.54606 z m 8.17303,0 h 6.07228 v -13.14688 h -6.07228 z m 10.17794,0 h 5.8996 v -13.14688 h -5.8996 z m 8.52633,0 h 5.54536 v -13.14688 h -5.54536 z m 8.17306,0 h 6.07227 v -13.14688 h -6.07227 z m 10.17721,0 h 5.79508 v -13.14688 h -5.79508 z m 8.42205,0 h 5.54582 v -13.14688 h -5.54582 z m 8.17279,0 h 6.17608 v -13.14688 h -6.17608 z m 6.17608,3.28708 h -6.17608 v 12.43741 h 6.17608 z m -8.80305,0 h -5.54582 v 12.43741 h 5.54582 z m -8.17279,0 h -5.79508 v 12.43741 h 5.79508 z m -9.90002,0 h -6.07227 v 12.43741 h 6.07227 z m -8.69997,0 h -5.54536 v 12.43741 h 5.54536 z m -8.17209,0 h -5.8996 v 12.43741 h 5.8996 z m -10.00526,0 h -6.07228 v 12.43741 h 6.07228 z m -8.69925,0 h -5.54606 v 12.43741 h 5.54606 z m -8.17279,0 h -5.8996 v 12.43741 h 5.8996 z m -10.00526,0 h -6.07156 v 12.43741 h 6.07156 z m -8.69927,0 h -5.54534 v 12.43741 h 5.54534 z m -8.17279,0 h -5.89888 v 12.43741 h 5.89888 z m -10.00454,0 h -6.07156 v 12.43741 h 6.07156 z m -8.69997,0 h -5.54462 v 12.43741 h 5.54462 z m -8.17207,0 h -5.8996 v 12.43741 h 5.8996 z m -10.00526,0 h -6.07158 v 12.43741 h 6.07158 z m -8.69927,0 h -5.5451 v 12.43741 h 5.5451 z m -8.17279,0 h -5.73175 v 12.43741 h 5.73175 z m -12.63537,0 h -6.03013 v 12.43741 h 6.03013 z M 520.70262,383.32863 h 6.07227 v -12.44631 h -6.07227 z m 8.69924,0 h 5.54534 v -12.44631 h -5.54534 z m 8.17279,0 h 5.89891 v -12.44631 h -5.89891 z m 10.00457,0 h 6.07155 v -12.44631 h -6.07155 z m 8.69997,0 h 5.5451 v -12.44631 h -5.5451 z m 8.17206,0 h 5.89961 v -12.44631 h -5.89961 z m 10.00527,0 h 6.07155 v -12.44631 h -6.07155 z m 8.69924,0 h 5.5451 v -12.44631 h -5.5451 z m 8.17282,0 h 5.8996 v -12.44631 h -5.8996 z m 10.00526,0 h 6.07155 v -12.44631 h -6.07155 z m 8.69852,0 h 5.5451 v -12.44631 h -5.5451 z m 8.17352,0 h 5.63396 v -12.44631 h -5.63396 z m 92.43572,0 h 6.03013 v -12.44631 h -6.03013 z m 12.93375,0 h 5.73175 v -12.44631 h -5.73175 z m 8.35944,0 h 5.5451 v -12.44631 h -5.5451 z m 8.17279,0 h 6.07158 v -12.44631 h -6.07158 z m 10.17724,0 h 5.8996 v -12.44631 h -5.8996 z m 8.52705,0 h 5.54462 v -12.44631 h -5.54462 z m 8.17303,0 h 6.07156 v -12.44631 h -6.07156 z m 10.17722,0 h 5.89888 v -12.44631 h -5.89888 z m 8.52633,0 h 5.54534 v -12.44631 h -5.54534 z m 8.17305,0 h 6.07156 v -12.44631 h -6.07156 z m 10.17722,0 h 5.8996 v -12.44631 h -5.8996 z m 8.52633,0 h 5.54606 v -12.44631 h -5.54606 z m 8.17303,0 h 6.07228 v -12.44631 h -6.07228 z m 10.17794,0 h 5.8996 v -12.44631 h -5.8996 z m 8.52633,0 h 5.54536 v -12.44631 h -5.54536 z m 8.17306,0 h 6.07227 v -12.44631 h -6.07227 z m 10.17721,0 h 5.79508 v -12.44631 h -5.79508 z m 8.42205,0 h 5.54582 v -12.44631 h -5.54582 z m 8.17279,0 h 6.17608 v -12.44631 h -6.17608 z"/>
<path d="m 672.05057,290.58975 c 3.71696,0.66782 7.95581,0.83423 12.01764,-0.33307 10.87131,-3.12597 11.34237,-7.3571 25.99516,-6.98839 14.65352,0.36798 15.8331,-0.18448 14.88832,0 8.48901,-5.56437 7.88693,-13.33738 5.72621,-19.95105 -2.28355,0.13126 -8.99619,0.41784 -20.61453,0.12572 -14.65279,-0.36871 -15.12385,3.8617 -25.99516,6.98767 -4.06183,1.16874 -8.30068,1.00161 -12.01764,0.33379 z"/>
<path d="m 730.6779,263.31724 c -1.03966,-3.18328 -2.44057,-6.09828 -3.36222,-8.36882 -2.83649,-6.98767 4.25305,-12.68787 4.25305,-12.68787 0,0 -6.85184,0.5515 -21.50536,0.18352 -14.65279,-0.36871 -15.12385,3.86194 -25.99516,6.98791 -4.06183,1.16802 -8.30068,1.00137 -12.01764,0.33379 v 20.99865 c 3.71696,0.66782 7.95581,0.83495 12.01764,-0.33379 10.87131,-3.12597 11.34237,-7.35638 25.99516,-6.98767 11.61834,0.29212 18.33098,0.005 20.61453,-0.12572"/>
<path d="m 699.80427,251.83136 3.74177,7.14493 7.94617,-1.38116 -5.63878,5.76715 3.76898,7.1312 -7.22681,-3.58185 -5.61687,5.78882 1.17212,-7.98037 -7.24032,-3.55393 7.95173,-1.35033 z"/>
</svg>
